<?xml version="1.0" standalone="no"?>
<!DOCTYPE svg PUBLIC "-//W3C//DTD SVG 20010904//EN"
 "http://www.w3.org/TR/2001/REC-SVG-20010904/DTD/svg10.dtd">
<svg version="1.0" xmlns="http://www.w3.org/2000/svg"
 width="880.000000pt" height="880.000000pt" viewBox="0 0 880.000000 880.000000"
 preserveAspectRatio="xMidYMid meet">
<metadata>
Created by potrace 1.11, written by Peter Selinger 2001-2013
</metadata>
<g transform="translate(0.000000,880.000000) scale(0.100000,-0.100000)"
fill="#000000" stroke="none">
<path d="M3229 8782 c-13 -10 -37 -25 -54 -34 -16 -8 -84 -46 -150 -85 -66
-38 -131 -76 -145 -84 -14 -7 -48 -28 -77 -46 -28 -18 -54 -33 -56 -33 -3 0
-49 -26 -104 -58 -54 -32 -115 -66 -135 -77 -21 -11 -38 -23 -38 -27 0 -5 -5
-8 -11 -8 -9 0 -92 -47 -229 -129 -19 -11 -42 -24 -50 -28 -8 -4 -59 -33 -113
-65 -54 -32 -101 -58 -105 -58 -3 0 -13 -6 -21 -14 -15 -12 -108 -66 -158 -90
-13 -6 -23 -14 -23 -18 0 -5 -4 -8 -10 -8 -8 0 -96 -50 -372 -211 l-68 -40 0
-3269 0 -3269 63 -36 c34 -20 69 -40 77 -45 139 -81 256 -148 300 -173 30 -16
62 -36 71 -43 8 -8 18 -14 22 -14 10 0 322 -184 325 -192 2 -4 10 -8 18 -8 7
0 45 -20 84 -45 38 -25 70 -42 70 -38 0 3 8 -1 18 -9 9 -8 63 -41 120 -72 56
-32 105 -62 108 -67 3 -5 10 -7 15 -4 5 4 9 1 9 -4 0 -6 4 -11 9 -11 8 0 234
-129 281 -160 8 -6 24 -14 36 -19 12 -5 45 -25 75 -44 30 -18 69 -40 87 -48
17 -8 32 -17 32 -21 0 -5 6 -8 14 -8 8 0 16 -3 18 -7 1 -5 26 -20 53 -35 l51
-27 -1 4400 c0 2419 -3 4399 -6 4399 -4 0 -17 -8 -30 -18z"/>
<path d="M5535 7674 c0 -982 -2 -1118 -15 -1125 -8 -5 -73 -43 -143 -84 -71
-41 -132 -75 -136 -75 -4 0 -12 -5 -19 -12 -7 -7 -36 -26 -66 -43 -176 -99
-216 -122 -263 -152 -29 -18 -55 -33 -58 -33 -3 0 -22 -11 -43 -23 -74 -47
-281 -167 -287 -167 -3 0 -11 -5 -18 -11 -7 -6 -38 -25 -69 -42 -78 -43 -474
-273 -520 -303 -21 -13 -41 -24 -46 -24 -5 0 -19 -9 -32 -20 l-23 -20 -1
-1137 -1 -1138 22 -18 c11 -9 26 -17 32 -17 6 0 11 -3 11 -7 0 -5 10 -13 23
-19 37 -17 112 -59 117 -65 3 -3 12 -8 20 -12 8 -4 33 -18 55 -32 22 -13 49
-29 60 -35 11 -6 36 -20 55 -31 19 -12 94 -55 165 -97 72 -41 141 -82 155 -91
14 -8 27 -16 30 -16 5 -1 53 -29 105 -62 11 -7 40 -24 65 -38 47 -26 64 -36
168 -98 35 -20 67 -37 73 -37 5 0 9 -4 9 -10 0 -5 4 -10 10 -10 5 0 66 -34
135 -75 70 -41 128 -75 131 -75 2 0 23 -12 47 -27 23 -15 51 -32 62 -38 94
-51 184 -108 187 -118 2 -7 4 -512 3 -1124 l-1 -1112 41 22 c22 12 42 24 45
27 3 3 20 13 38 23 17 10 98 57 180 104 81 47 191 111 245 142 54 31 105 61
115 66 9 6 78 45 152 88 74 43 142 82 150 87 172 100 242 140 250 140 6 0 10
4 10 8 0 5 16 14 35 22 19 8 35 17 35 21 0 4 12 12 28 18 15 6 48 23 73 38 36
22 210 123 357 208 10 6 59 34 110 64 l92 53 0 1117 0 1117 -35 20 c-19 10
-114 66 -212 123 -98 57 -198 115 -223 129 -25 14 -69 40 -98 59 -29 18 -55
33 -57 33 -3 0 -41 22 -84 49 -44 27 -81 47 -84 45 -2 -3 -10 2 -17 11 -7 8
-19 15 -26 15 -8 0 -14 4 -14 8 0 4 -12 13 -27 20 -16 6 -41 20 -58 30 -49 31
-207 123 -250 146 -22 12 -42 24 -45 27 -3 3 -68 41 -145 86 -307 176 -395
228 -395 236 0 4 10 11 23 16 12 5 40 21 61 36 22 15 49 31 60 36 12 5 35 18
51 28 31 20 72 44 135 77 19 11 37 21 40 24 10 11 132 80 141 80 5 0 9 5 9 10
0 6 4 10 10 10 5 0 74 38 154 85 80 47 148 85 151 85 3 0 11 5 18 10 12 11 63
40 640 375 l276 160 1 1117 0 1117 -85 51 c-47 27 -90 50 -95 50 -6 0 -10 5
-10 10 0 6 -6 10 -14 10 -8 0 -21 6 -28 13 -8 6 -29 20 -48 31 -19 10 -51 28
-70 39 -19 11 -55 31 -80 45 -25 13 -52 30 -60 36 -8 7 -28 18 -45 26 -16 8
-48 26 -70 40 -22 13 -49 29 -60 35 -31 17 -95 54 -295 170 -102 59 -205 119
-230 133 -25 14 -57 33 -72 43 -14 11 -29 19 -32 19 -3 0 -46 25 -97 55 -50
30 -93 55 -94 55 -1 0 -87 50 -190 110 -103 61 -191 110 -195 110 -4 0 -13 7
-20 15 -7 8 -16 13 -20 10 -5 -3 -11 -1 -15 5 -29 46 -30 0 -30 -1106z"/>
</g>
</svg>
