<svg xmlns="http://www.w3.org/2000/svg" width="198.15" height="35.81" viewBox="0 0 198.15 35.81"><defs><style>.cls-1{fill:#e6e7e8;}</style></defs><title>KensoBI type logo</title><g id="Layer_2" data-name="Layer 2"><g id="Layer_1-2" data-name="Layer 1"><path class="cls-1" d="M9.71,7.67V23.12L26.79,7.67H34L14.63,25.22,34.79,43.48H27.57L9.71,27.37V43.48H4.59V7.67Z" transform="translate(-4.59 -7.67)"/><path class="cls-1" d="M61.43,32.69H43.83v5.87h17.6v4.92H43.83a4.72,4.72,0,0,1-1.9-.39,4.9,4.9,0,0,1-2.61-2.61,4.78,4.78,0,0,1-.39-1.92V21.8a4.78,4.78,0,0,1,.39-1.92,4.9,4.9,0,0,1,2.61-2.61,4.72,4.72,0,0,1,1.9-.39H56.51a4.78,4.78,0,0,1,1.92.39A5,5,0,0,1,60,18.32a4.93,4.93,0,0,1,1.44,3.48ZM43.83,21.8v6H56.51v-6Z" transform="translate(-4.59 -7.67)"/><path class="cls-1" d="M93.14,43.48H88.22V21.8H74.52V43.48h-4.9V16.88h4.9v4.7a4.93,4.93,0,0,1,3-4.34,4.87,4.87,0,0,1,1.87-.36h8.79a4.79,4.79,0,0,1,1.93.39,4.88,4.88,0,0,1,3,4.53Z" transform="translate(-4.59 -7.67)"/><path class="cls-1" d="M117.39,38.56V32.39H105.73a4.78,4.78,0,0,1-1.92-.39A5,5,0,0,1,102.25,31a4.93,4.93,0,0,1-1.44-3.48V21.8a4.93,4.93,0,0,1,1.44-3.48,5,5,0,0,1,1.56-1.05,4.78,4.78,0,0,1,1.92-.39h15.56V21.8H105.73v5.67h11.66a4.69,4.69,0,0,1,1.91.39,5,5,0,0,1,1.56,1,4.84,4.84,0,0,1,1.06,1.57,4.74,4.74,0,0,1,.39,1.92v6.17a4.78,4.78,0,0,1-.39,1.92A4.69,4.69,0,0,1,120.86,42a5.22,5.22,0,0,1-1.56,1.05,4.69,4.69,0,0,1-1.91.39H100.81V38.56Z" transform="translate(-4.59 -7.67)"/><path class="cls-1" d="M153,38.56a4.78,4.78,0,0,1-.39,1.92A5,5,0,0,1,151.54,42,5.05,5.05,0,0,1,150,43.09a4.69,4.69,0,0,1-1.91.39H134.87a4.75,4.75,0,0,1-1.9-.39,4.88,4.88,0,0,1-3-4.53V21.8a4.89,4.89,0,0,1,3-4.53,4.75,4.75,0,0,1,1.9-.39h13.21a4.69,4.69,0,0,1,1.91.39,5.05,5.05,0,0,1,1.55,1.05,5,5,0,0,1,1.05,1.56A4.78,4.78,0,0,1,153,21.8ZM134.87,21.8V38.56h13.21V21.8Z" transform="translate(-4.59 -7.67)"/><path class="cls-1" d="M185,24.8a7.1,7.1,0,0,1,2,1,5.81,5.81,0,0,1,1.57,1.66,8,8,0,0,1,1,2.38A13,13,0,0,1,190,33v1.8q0,8.68-8.69,8.69h-19.6V7.67h18.58q8.69,0,8.69,8.71V17A11,11,0,0,1,188,22,6,6,0,0,1,185,24.8Zm-18.3-12.11V22.87h13.75a3.52,3.52,0,0,0,2.66-1,4.25,4.25,0,0,0,.82-2.88V16.63a4.27,4.27,0,0,0-.9-3,3.91,3.91,0,0,0-2.93-.94Zm0,15.18V38.46h14.43a3.88,3.88,0,0,0,2.92-1,4.2,4.2,0,0,0,.9-3V31.76a4.15,4.15,0,0,0-.9-3,4,4,0,0,0-2.92-.92Z" transform="translate(-4.59 -7.67)"/><path class="cls-1" d="M202.75,7.67V43.48h-5.12V7.67Z" transform="translate(-4.59 -7.67)"/></g></g></svg>