<svg xmlns="http://www.w3.org/2000/svg" viewBox="0 0 77.3 110.16"><defs><style>.cls-1{fill:#f4d452;}.cls-1,.cls-2,.cls-3,.cls-4,.cls-5,.cls-6{fill-rule:evenodd;}.cls-2{fill:#e72483;}.cls-3{fill:#f9a448;}.cls-4{fill:#df2027;}.cls-5{fill:#00aae2;}.cls-6{fill:#0078bc;}</style></defs><title>KensoBI_icon</title><g id="Layer_2" data-name="Layer 2"><g id="OBJECTS"><polygon class="cls-1" points="77.3 36.57 77.3 14.15 54 0.65 52.87 0 52.87 50.47 77.3 36.57"/><path class="cls-2" d="M52.83,110.16l1.17-.68L77.3,96V79.23C69.51,74.18,60,67.79,52.87,63Q52.86,86.6,52.83,110.16Z"/><path class="cls-3" d="M24.47,110.16l-1.17-.68L0,96V14.15L23.3.65,24.43,0Q24.43,55.08,24.47,110.16Z"/><path class="cls-4" d="M24.47,110.16l-1.17-.68L0,96V47.63L24.44,64.72Q24.44,87.45,24.47,110.16Z"/><polygon class="cls-5" points="77.3 14.15 77.3 41.14 77.3 42.01 77.3 42.1 55.05 55.07 31.14 69.41 31.14 40.72 52.72 28.15 77.3 14.15"/><polygon class="cls-6" points="55.05 55.07 77.3 68.04 77.3 68.13 77.3 69 77.3 95.99 52.72 81.99 31.14 69.41 31.14 40.72 55.05 55.07"/></g></g></svg>